# xmcd
#
# Track frame offsets: 
#        150
#        12451
#        19711
#        33749
#        50080
#        62933
#        77460
#        89045
#        98940
#        109438
#        121898
#        135758
#
# Disc length: 2005 seconds
#
# Revision: 0
# Processed by: cddbd v1.5.1PL0 Copyright (c) Steve Scherf et al.
# Submitted via: ExactAudioCopy v0.95a5
#
DISCID=a107d30c
DTITLE=Willie Nelson - On the Road Again
DYEAR=1999
DGENRE=Country
TTITLE0=Seven Spanish Angels
TTITLE1=Luckenback Texas
TTITLE2=Good Hearted Woman
TTITLE3=Angle Flying Too Close To The Ground
TTITLE4=To All The Girls I've Loved Before
TTITLE5=Will You Remember Me
TTITLE6=Is There Something On Your Mind
TTITLE7=Broken Promises
TTITLE8=Blame It On The Times
TTITLE9=The Shelter Of Your Arms
TTITLE10=Home Is Where You're Happy
TTITLE11=And So Will You My Love
EXTD=
EXTT0=
EXTT1=
EXTT2=
EXTT3=
EXTT4=
EXTT5=
EXTT6=
EXTT7=
EXTT8=
EXTT9=
EXTT10=
EXTT11=
PLAYORDER=
